
<svg width="180" height="180" viewBox="0 0 180 180" fill="none" xmlns="http://www.w3.org/2000/svg">
  <rect width="180" height="180" rx="36" fill="url(#gradient)"/>
  
  <!-- Main circular design -->
  <circle cx="90" cy="90" r="70" fill="url(#centerGrad)" stroke="white" stroke-width="4"/>
  
  <!-- Stylized "F" with flow concept -->
  <g transform="translate(45, 55)">
    <!-- Modern F shape -->
    <path d="M0 8 Q0 0 8 0 L35 0 Q43 0 43 8 Q43 16 35 16 L16 16 L16 28 L30 28 Q38 28 38 36 Q38 44 30 44 L16 44 L16 56 Q16 64 8 64 Q0 64 0 56 L0 8 Z" 
          fill="white"/>
  </g>
  
  <!-- Flowing knowledge streams -->
  <g opacity="0.8">
    <!-- Flow stream 1 -->
    <path d="M35 65 Q60 50 85 60 Q110 70 135 55" 
          stroke="white" 
          stroke-width="3" 
          fill="none" 
          stroke-linecap="round"/>
    
    <!-- Flow stream 2 -->
    <path d="M40 110 Q65 95 90 105 Q115 115 140 100" 
          stroke="white" 
          stroke-width="3" 
          fill="none" 
          stroke-linecap="round" 
          opacity="0.9"/>
    
    <!-- Flow stream 3 -->
    <path d="M45 85 Q70 75 95 85 Q120 95 145 80" 
          stroke="white" 
          stroke-width="2" 
          fill="none" 
          stroke-linecap="round" 
          opacity="0.7"/>
  </g>
  
  <!-- Knowledge nodes -->
  <g>
    <circle cx="60" cy="58" r="3" fill="white"/>
    <circle cx="85" cy="52" r="2.5" fill="white" opacity="0.9"/>
    <circle cx="110" cy="65" r="2" fill="white" opacity="0.8"/>
    <circle cx="65" cy="100" r="3" fill="white"/>
    <circle cx="95" cy="95" r="2.5" fill="white" opacity="0.9"/>
  </g>
  
  <!-- Central mind/intelligence symbol -->
  <g transform="translate(120, 85)">
    <circle cx="0" cy="0" r="12" fill="white" opacity="0.95"/>
    <circle cx="0" cy="0" r="6" fill="#4ea674" opacity="0.8"/>
    
    <!-- Neural connections -->
    <g opacity="0.8">
      <path d="M-4 -4 L4 4" stroke="white" stroke-width="1" stroke-linecap="round"/>
      <path d="M4 -4 L-4 4" stroke="white" stroke-width="1" stroke-linecap="round"/>
      <circle cx="0" cy="-8" r="1" fill="white"/>
      <circle cx="8" cy="0" r="1" fill="white"/>
      <circle cx="0" cy="8" r="1" fill="white"/>
      <circle cx="-8" cy="0" r="1" fill="white"/>
    </g>
  </g>
  
  <!-- Outer decorative ring -->
  <circle cx="90" cy="90" r="78" fill="none" stroke="white" stroke-width="1" opacity="0.4" stroke-dasharray="8,12"/>
  
  <defs>
    <linearGradient id="gradient" x1="0" y1="0" x2="180" y2="180">
      <stop offset="0%" stop-color="#4ea674"/>
      <stop offset="50%" stop-color="#5fad81"/>
      <stop offset="100%" stop-color="#459071"/>
    </linearGradient>
    
    <radialGradient id="centerGrad" cx="50%" cy="50%" r="50%">
      <stop offset="0%" style="stop-color:#ffffff;stop-opacity:0.2"/>
      <stop offset="100%" style="stop-color:#ffffff;stop-opacity:0.05"/>
    </radialGradient>
  </defs>
</svg>