<svg width="180" height="180" viewBox="0 0 48 48" fill="none" xmlns="http://www.w3.org/2000/svg">
  <defs>
    <linearGradient id="bgGradientApple" x1="0%" y1="0%" x2="100%" y2="100%">
      <stop offset="0%" stop-color="#f0fdf4" />
      <stop offset="100%" stop-color="#dcfce7" />
    </linearGradient>
    <linearGradient id="nGradientApple" x1="0%" y1="0%" x2="100%" y2="100%">
      <stop offset="0%" stop-color="#10b981" />
      <stop offset="100%" stop-color="#059669" />
    </linearGradient>
    <filter id="innerGlowApple" x="-50%" y="-50%" width="200%" height="200%">
      <feGaussianBlur in="SourceAlpha" stdDeviation="1"/>
      <feOffset dx="0" dy="0.5" result="offsetblur"/>
      <feComponentTransfer>
        <feFuncA type="linear" slope="0.1"/>
      </feComponentTransfer>
      <feMerge>
        <feMergeNode/>
        <feMergeNode in="SourceGraphic"/>
      </feMerge>
    </filter>
  </defs>
  <rect x="8" y="8" width="32" height="32" rx="8" fill="url(#bgGradientApple)" filter="url(#innerGlowApple)" />
  <g transform="translate(11, 11)">
    <path d="M 3 0 C 1.343 0 0 1.343 0 3 L 0 23 C 0 24.657 1.343 26 3 26 C 4.657 26 6 24.657 6 23 L 6 9.5 L 20 23.5 C 20.5 24 21 24.5 21.5 24.75 C 22 25 22.5 25 23 25 C 24.657 25 26 23.657 26 22 L 26 3 C 26 1.343 24.657 0 23 0 C 21.343 0 20 1.343 20 3 L 20 16.5 L 6 2.5 C 5.5 2 5 1.5 4.5 1.25 C 4 1 3.5 0 3 0 Z" fill="#10b981"/>
  </g>
</svg>