<svg width="32" height="32" viewBox="0 0 32 32" fill="none" xmlns="http://www.w3.org/2000/svg">
  <rect width="32" height="32" rx="6" fill="url(#gradient)"/>
  
  <!-- Simplified F with flow elements -->
  <g transform="translate(6, 8)">
    <!-- Stylized F -->
    <path d="M0 2 Q0 0 2 0 L10 0 Q12 0 12 2 Q12 4 10 4 L4 4 L4 7 L8 7 Q10 7 10 9 Q10 11 8 11 L4 11 L4 14 Q4 16 2 16 Q0 16 0 14 L0 2 Z" 
          fill="white"/>
  </g>
  
  <!-- Flow streams -->
  <path d="M6 12 Q12 10 18 14" stroke="white" stroke-width="1.5" fill="none" stroke-linecap="round" opacity="0.8"/>
  <path d="M8 20 Q14 18 20 22" stroke="white" stroke-width="1.5" fill="none" stroke-linecap="round" opacity="0.7"/>
  
  <!-- Knowledge nodes -->
  <circle cx="12" cy="11" r="1.5" fill="white" opacity="0.9"/>
  <circle cx="16" cy="13" r="1" fill="white" opacity="0.8"/>
  <circle cx="14" cy="19" r="1.2" fill="white" opacity="0.85"/>
  
  <!-- Mind symbol -->
  <g transform="translate(22, 10)">
    <circle cx="0" cy="0" r="4" fill="white" opacity="0.9"/>
    <circle cx="0" cy="0" r="2" fill="#4ea674" opacity="0.8"/>
    <!-- Mini neural pattern -->
    <path d="M-1.5 -1.5 L1.5 1.5 M1.5 -1.5 L-1.5 1.5" stroke="white" stroke-width="0.5" opacity="0.7"/>
  </g>
  
  <defs>
    <linearGradient id="gradient" x1="0" y1="0" x2="32" y2="32">
      <stop offset="0%" stop-color="#4ea674"/>
      <stop offset="50%" stop-color="#5fad81"/>
      <stop offset="100%" stop-color="#459071"/>
    </linearGradient>
  </defs>
</svg>