<svg width="512" height="512" viewBox="0 0 512 512" fill="none" xmlns="http://www.w3.org/2000/svg">
  <!-- Modern circular logo representing flow and mind -->
  <defs>
    <linearGradient id="primaryGradient" x1="0%" y1="0%" x2="100%" y2="100%">
      <stop offset="0%" style="stop-color:#4ea674"/>
      <stop offset="50%" style="stop-color:#5fad81"/>
      <stop offset="100%" style="stop-color:#459071"/>
    </linearGradient>
    
    <linearGradient id="flowGradient" x1="0%" y1="0%" x2="100%" y2="0%">
      <stop offset="0%" style="stop-color:#4ea674;stop-opacity:0.8"/>
      <stop offset="50%" style="stop-color:#5fad81;stop-opacity:0.9"/>
      <stop offset="100%" style="stop-color:#459071;stop-opacity:0.7"/>
    </linearGradient>
    
    <radialGradient id="centerGradient" cx="50%" cy="50%" r="50%">
      <stop offset="0%" style="stop-color:#ffffff"/>
      <stop offset="60%" style="stop-color:#f0f9f3"/>
      <stop offset="100%" style="stop-color:#dcefe2"/>
    </radialGradient>
  </defs>
  
  <!-- Main circular container - expanded to fill more space -->
  <circle cx="256" cy="256" r="240" fill="url(#centerGradient)" stroke="url(#primaryGradient)" stroke-width="10"/>
  
  <!-- Stylized "F" integrated with flow concept - scaled and repositioned -->
  <g transform="translate(160, 140)">
    <!-- Main vertical stroke of F - enlarged -->
    <path d="M0 25 Q0 0 25 0 L120 0 Q145 0 145 25 Q145 50 120 50 L55 55 L55 95 L95 95 Q120 95 120 120 Q120 145 95 145 L55 145 L55 185 Q55 210 25 210 Q0 210 0 185 L0 25 Z" 
          fill="url(#primaryGradient)">
      <animate attributeName="opacity" values="1;0.9;1" dur="3s" repeatCount="indefinite"/>
    </path>
  </g>
  
  <!-- Flowing elements representing knowledge streams - expanded paths -->
  <g opacity="0.8">
    <!-- Flow stream 1 - extended to edges -->
    <path d="M40 160 Q120 80 200 120 Q280 160 400 100 Q450 80 500 120" 
          stroke="url(#flowGradient)" 
          stroke-width="8" 
          fill="none" 
          stroke-linecap="round">
      <animate attributeName="opacity" values="0.8;0.4;0.8" dur="4s" repeatCount="indefinite"/>
    </path>
    
    <!-- Flow stream 2 - extended to edges -->
    <path d="M60 380 Q140 320 220 360 Q300 400 420 340 Q460 320 500 360" 
          stroke="url(#flowGradient)" 
          stroke-width="8" 
          fill="none" 
          stroke-linecap="round">
      <animate attributeName="opacity" values="0.6;0.3;0.6" dur="3.5s" repeatCount="indefinite" begin="0.8s"/>
    </path>
    
    <!-- Flow stream 3 - extended across full width -->
    <path d="M20 256 Q120 200 220 240 Q320 280 420 220 Q460 200 500 240" 
          stroke="url(#flowGradient)" 
          stroke-width="6" 
          fill="none" 
          stroke-linecap="round">
      <animate attributeName="opacity" values="0.7;0.35;0.7" dur="4.2s" repeatCount="indefinite" begin="1.2s"/>
    </path>
  </g>
  
  <!-- Knowledge nodes - spread across larger area -->
  <g opacity="0.9">
    <circle cx="120" cy="140" r="8" fill="#4ea674">
      <animate attributeName="r" values="8;12;8" dur="3s" repeatCount="indefinite"/>
    </circle>
    <circle cx="200" cy="110" r="7" fill="#5fad81">
      <animate attributeName="r" values="7;11;7" dur="2.8s" repeatCount="indefinite" begin="0.5s"/>
    </circle>
    <circle cx="320" cy="150" r="6" fill="#459071">
      <animate attributeName="r" values="6;10;6" dur="3.2s" repeatCount="indefinite" begin="1s"/>
    </circle>
    <circle cx="140" cy="340" r="7" fill="#5fad81">
      <animate attributeName="r" values="7;11;7" dur="2.6s" repeatCount="indefinite" begin="1.5s"/>
    </circle>
    <circle cx="260" cy="380" r="8" fill="#4ea674">
      <animate attributeName="r" values="8;12;8" dur="3.4s" repeatCount="indefinite" begin="0.3s"/>
    </circle>
    <circle cx="380" cy="200" r="6" fill="#459071">
      <animate attributeName="r" values="6;10;6" dur="2.9s" repeatCount="indefinite" begin="0.7s"/>
    </circle>
  </g>
  
  <!-- Animated flow particles - longer paths -->
  <g opacity="0.7">
    <!-- Particle 1 -->
    <circle r="4" fill="#4ea674">
      <animateMotion dur="8s" repeatCount="indefinite">
        <path d="M40,160 Q120,80 200,120 Q280,160 400,100 Q450,80 500,120"/>
      </animateMotion>
      <animate attributeName="opacity" values="0;1;1;0" dur="8s" repeatCount="indefinite"/>
    </circle>
    
    <!-- Particle 2 -->
    <circle r="3.5" fill="#5fad81">
      <animateMotion dur="7s" repeatCount="indefinite" begin="2s">
        <path d="M60,380 Q140,320 220,360 Q300,400 420,340 Q460,320 500,360"/>
      </animateMotion>
      <animate attributeName="opacity" values="0;1;1;0" dur="7s" repeatCount="indefinite" begin="2s"/>
    </circle>
    
    <!-- Particle 3 -->
    <circle r="3" fill="#459071">
      <animateMotion dur="6.5s" repeatCount="indefinite" begin="4s">
        <path d="M20,256 Q120,200 220,240 Q320,280 420,220 Q460,200 500,240"/>
      </animateMotion>
      <animate attributeName="opacity" values="0;1;1;0" dur="6.5s" repeatCount="indefinite" begin="4s"/>
    </circle>
  </g>
  
  <!-- Central mind/intelligence symbol - repositioned and enlarged -->
  <g transform="translate(380, 280)">
    <circle cx="0" cy="0" r="35" fill="url(#primaryGradient)" opacity="0.9">
      <animate attributeName="r" values="35;42;35" dur="4s" repeatCount="indefinite"/>
    </circle>
    
    <circle cx="0" cy="0" r="18" fill="white" opacity="0.95"/>
    
    <!-- Neural connections in center - enlarged -->
    <g opacity="0.8">
      <path d="M-12 -12 L12 12" stroke="#4ea674" stroke-width="3" stroke-linecap="round"/>
      <path d="M12 -12 L-12 12" stroke="#4ea674" stroke-width="3" stroke-linecap="round"/>
      <circle cx="0" cy="-22" r="3" fill="#5fad81"/>
      <circle cx="22" cy="0" r="3" fill="#459071"/>
      <circle cx="0" cy="22" r="3" fill="#5fad81"/>
      <circle cx="-22" cy="0" r="3" fill="#459071"/>
    </g>
  </g>
  
  <!-- Subtle outer ring decoration - expanded to edge -->
  <circle cx="256" cy="256" r="250" fill="none" stroke="url(#flowGradient)" stroke-width="3" opacity="0.3" stroke-dasharray="25,35">
    <animateTransform attributeName="transform" attributeType="XML" type="rotate" values="0 256 256;360 256 256" dur="20s" repeatCount="indefinite"/>
  </circle>
</svg>