<svg width="512" height="512" viewBox="0 0 512 512" fill="none" xmlns="http://www.w3.org/2000/svg">
  <!-- Modern circular logo representing flow and mind -->
  <defs>
    <linearGradient id="primaryGradient" x1="0%" y1="0%" x2="100%" y2="100%">
      <stop offset="0%" style="stop-color:#4ea674"/>
      <stop offset="50%" style="stop-color:#5fad81"/>
      <stop offset="100%" style="stop-color:#459071"/>
    </linearGradient>
    
    <linearGradient id="flowGradient" x1="0%" y1="0%" x2="100%" y2="0%">
      <stop offset="0%" style="stop-color:#4ea674;stop-opacity:0.8"/>
      <stop offset="50%" style="stop-color:#5fad81;stop-opacity:0.9"/>
      <stop offset="100%" style="stop-color:#459071;stop-opacity:0.7"/>
    </linearGradient>
    
    <radialGradient id="centerGradient" cx="50%" cy="50%" r="50%">
      <stop offset="0%" style="stop-color:#ffffff"/>
      <stop offset="60%" style="stop-color:#f0f9f3"/>
      <stop offset="100%" style="stop-color:#dcefe2"/>
    </radialGradient>
  </defs>
  
  <!-- Main circular container -->
  <circle cx="256" cy="256" r="180" fill="url(#centerGradient)" stroke="url(#primaryGradient)" stroke-width="8"/>
  
  <!-- Stylized "F" integrated with flow concept -->
  <g transform="translate(200, 180)">
    <!-- Main vertical stroke of F -->
    <path d="M0 20 Q0 0 20 0 L80 0 Q100 0 100 20 Q100 40 80 40 L40 40 L40 70 L70 70 Q90 70 90 90 Q90 110 70 110 L40 110 L40 140 Q40 160 20 160 Q0 160 0 140 L0 20 Z" 
          fill="url(#primaryGradient)">
      <animate attributeName="opacity" values="1;0.9;1" dur="3s" repeatCount="indefinite"/>
    </path>
  </g>
  
  <!-- Flowing elements representing knowledge streams -->
  <g opacity="0.8">
    <!-- Flow stream 1 -->
    <path d="M120 200 Q180 150 250 180 Q320 210 380 160" 
          stroke="url(#flowGradient)" 
          stroke-width="6" 
          fill="none" 
          stroke-linecap="round">
      <animate attributeName="opacity" values="0.8;0.4;0.8" dur="4s" repeatCount="indefinite"/>
    </path>
    
    <!-- Flow stream 2 -->
    <path d="M140 320 Q200 270 270 300 Q340 330 400 280" 
          stroke="url(#flowGradient)" 
          stroke-width="6" 
          fill="none" 
          stroke-linecap="round">
      <animate attributeName="opacity" values="0.6;0.3;0.6" dur="3.5s" repeatCount="indefinite" begin="0.8s"/>
    </path>
    
    <!-- Flow stream 3 -->
    <path d="M160 256 Q220 220 280 250 Q340 280 380 240" 
          stroke="url(#flowGradient)" 
          stroke-width="4" 
          fill="none" 
          stroke-linecap="round">
      <animate attributeName="opacity" values="0.7;0.35;0.7" dur="4.2s" repeatCount="indefinite" begin="1.2s"/>
    </path>
  </g>
  
  <!-- Knowledge nodes -->
  <g opacity="0.9">
    <circle cx="180" cy="190" r="6" fill="#4ea674">
      <animate attributeName="r" values="6;9;6" dur="3s" repeatCount="indefinite"/>
    </circle>
    <circle cx="250" cy="170" r="5" fill="#5fad81">
      <animate attributeName="r" values="5;8;5" dur="2.8s" repeatCount="indefinite" begin="0.5s"/>
    </circle>
    <circle cx="320" cy="200" r="4" fill="#459071">
      <animate attributeName="r" values="4;7;4" dur="3.2s" repeatCount="indefinite" begin="1s"/>
    </circle>
    <circle cx="200" cy="280" r="5" fill="#5fad81">
      <animate attributeName="r" values="5;8;5" dur="2.6s" repeatCount="indefinite" begin="1.5s"/>
    </circle>
    <circle cx="280" cy="300" r="6" fill="#4ea674">
      <animate attributeName="r" values="6;9;6" dur="3.4s" repeatCount="indefinite" begin="0.3s"/>
    </circle>
  </g>
  
  <!-- Animated flow particles -->
  <g opacity="0.7">
    <!-- Particle 1 -->
    <circle r="3" fill="#4ea674">
      <animateMotion dur="6s" repeatCount="indefinite">
        <path d="M120,200 Q180,150 250,180 Q320,210 380,160"/>
      </animateMotion>
      <animate attributeName="opacity" values="0;1;1;0" dur="6s" repeatCount="indefinite"/>
    </circle>
    
    <!-- Particle 2 -->
    <circle r="2.5" fill="#5fad81">
      <animateMotion dur="5.5s" repeatCount="indefinite" begin="2s">
        <path d="M140,320 Q200,270 270,300 Q340,330 400,280"/>
      </animateMotion>
      <animate attributeName="opacity" values="0;1;1;0" dur="5.5s" repeatCount="indefinite" begin="2s"/>
    </circle>
    
    <!-- Particle 3 -->
    <circle r="2" fill="#459071">
      <animateMotion dur="5s" repeatCount="indefinite" begin="4s">
        <path d="M160,256 Q220,220 280,250 Q340,280 380,240"/>
      </animateMotion>
      <animate attributeName="opacity" values="0;1;1;0" dur="5s" repeatCount="indefinite" begin="4s"/>
    </circle>
  </g>
  
  <!-- Central mind/intelligence symbol -->
  <g transform="translate(340, 260)">
    <circle cx="0" cy="0" r="25" fill="url(#primaryGradient)" opacity="0.9">
      <animate attributeName="r" values="25;30;25" dur="4s" repeatCount="indefinite"/>
    </circle>
    
    <circle cx="0" cy="0" r="12" fill="white" opacity="0.95"/>
    
    <!-- Neural connections in center -->
    <g opacity="0.8">
      <path d="M-8 -8 L8 8" stroke="#4ea674" stroke-width="2" stroke-linecap="round"/>
      <path d="M8 -8 L-8 8" stroke="#4ea674" stroke-width="2" stroke-linecap="round"/>
      <circle cx="0" cy="-15" r="2" fill="#5fad81"/>
      <circle cx="15" cy="0" r="2" fill="#459071"/>
      <circle cx="0" cy="15" r="2" fill="#5fad81"/>
      <circle cx="-15" cy="0" r="2" fill="#459071"/>
    </g>
  </g>
  
  <!-- Subtle outer ring decoration -->
  <circle cx="256" cy="256" r="200" fill="none" stroke="url(#flowGradient)" stroke-width="2" opacity="0.3" stroke-dasharray="20,30">
    <animateTransform attributeName="transform" attributeType="XML" type="rotate" values="0 256 256;360 256 256" dur="20s" repeatCount="indefinite"/>
  </circle>
</svg>