<svg width="1200" height="630" viewBox="0 0 1200 630" fill="none" xmlns="http://www.w3.org/2000/svg">
  <defs>
    <!-- Background gradient -->
    <linearGradient id="bgGradientOG" x1="0%" y1="0%" x2="100%" y2="100%">
      <stop offset="0%" stop-color="#f0fdf4" />
      <stop offset="50%" stop-color="#dcfce7" />
      <stop offset="100%" stop-color="#bbf7d0" />
    </linearGradient>

    <!-- Logo background gradient -->
    <linearGradient id="logoBgGradient" x1="0%" y1="0%" x2="100%" y2="100%">
      <stop offset="0%" stop-color="#f0fdf4" />
      <stop offset="100%" stop-color="#dcfce7" />
    </linearGradient>

    <!-- N lettermark gradient -->
    <linearGradient id="nGradientOG" x1="0%" y1="0%" x2="100%" y2="100%">
      <stop offset="0%" stop-color="#10b981" />
      <stop offset="100%" stop-color="#059669" />
    </linearGradient>
  </defs>

  <!-- Main background -->
  <rect width="1200" height="630" fill="url(#bgGradientOG)" />

  <!-- Decorative elements -->
  <circle cx="150" cy="100" r="80" fill="#10b981" opacity="0.05" />
  <circle cx="1050" cy="530" r="100" fill="#059669" opacity="0.05" />
  <circle cx="950" cy="150" r="60" fill="#10b981" opacity="0.08" />

  <!-- Logo and text centered -->
  <g transform="translate(600, 315)">
    <!-- Logo icon -->
    <g transform="translate(-180, -60)">
      <rect x="8" y="8" width="104" height="104" rx="26" fill="url(#logoBgGradient)" />

      <!-- N lettermark - scaled up with new design -->
      <g transform="scale(2.5) translate(11, 11)">
        <path d="M 3 0 C 1.343 0 0 1.343 0 3 L 0 23 C 0 24.657 1.343 26 3 26 C 4.657 26 6 24.657 6 23 L 6 9.5 L 20 23.5 C 20.5 24 21 24.5 21.5 24.75 C 22 25 22.5 25 23 25 C 24.657 25 26 23.657 26 22 L 26 3 C 26 1.343 24.657 0 23 0 C 21.343 0 20 1.343 20 3 L 20 16.5 L 6 2.5 C 5.5 2 5 1.5 4.5 1.25 C 4 1 3.5 0 3 0 Z" fill="#10b981"/>
      </g>
    </g>

    <!-- Brand name -->
    <text x="-40" y="0" font-family="Comfortaa, system-ui, sans-serif" font-size="120" font-weight="300" fill="#459071" text-anchor="start">
      <tspan font-weight="300">ne</tspan><tspan font-weight="700" fill="#059669">ru</tspan><tspan font-weight="300">vi</tspan>
    </text>

    <!-- Tagline -->
    <text x="0" y="60" font-family="system-ui, sans-serif" font-size="28" font-weight="500" fill="#5fad81" text-anchor="middle" letter-spacing="3">
      AI LEARNING NAVIGATOR
    </text>
  </g>

  <!-- Bottom text -->
  <text x="600" y="570" font-family="system-ui, sans-serif" font-size="18" font-weight="400" fill="#6b7280" text-anchor="middle">
    Master Node.js and Python with intelligent guidance
  </text>
</svg>